<?xml version="1.0" standalone="no"?>
<!DOCTYPE svg PUBLIC "-//W3C//DTD SVG 20010904//EN"
 "http://www.w3.org/TR/2001/REC-SVG-20010904/DTD/svg10.dtd">
<svg version="1.0" xmlns="http://www.w3.org/2000/svg"
 width="260.000000pt" height="260.000000pt" viewBox="0 0 260.000000 260.000000"
 preserveAspectRatio="xMidYMid meet">
<metadata>
Created by potrace 1.14, written by Peter Selinger 2001-2017
</metadata>
<g transform="translate(0.000000,260.000000) scale(0.100000,-0.100000)"
fill="#000000" stroke="none">
<path d="M1117 2434 c-1 -2 -27 -6 -57 -9 -231 -26 -477 -151 -653 -334 -160
-166 -260 -352 -303 -566 -17 -84 -22 -266 -11 -368 15 -129 79 -329 133 -410
14 -21 22 -42 19 -47 -3 -6 -37 -10 -75 -10 -59 0 -71 -3 -80 -20 -15 -28 -6
-41 113 -157 l104 -103 101 0 102 0 67 -46 c148 -102 299 -159 498 -189 44 -7
357 -7 420 0 94 10 185 29 250 52 98 35 224 99 285 145 28 21 60 38 73 38 15
0 60 37 135 112 104 102 113 115 108 141 -4 22 3 45 28 90 176 317 186 725 25
1047 -169 338 -482 566 -859 626 -37 6 -418 13 -423 8z"/>
</g>
</svg>
